<?xml version="1.0" encoding="UTF-8" standalone="no"?>
<!-- Created with Inkscape (http://www.inkscape.org/) -->

<svg
   version="1.1"
   id="svg1"
   width="1024"
   height="1024"
   viewBox="0 0 1024 1024"
   sodipodi:docname="g2commons.svg"
   inkscape:version="1.4.3 (0d15f75042, 2025-12-25)"
   inkscape:export-filename="g2commons.png"
   inkscape:export-xdpi="96"
   inkscape:export-ydpi="96"
   xmlns:inkscape="http://www.inkscape.org/namespaces/inkscape"
   xmlns:sodipodi="http://sodipodi.sourceforge.net/DTD/sodipodi-0.dtd"
   xmlns="http://www.w3.org/2000/svg"
   xmlns:svg="http://www.w3.org/2000/svg">
  <defs
     id="defs1" />
  <sodipodi:namedview
     id="namedview1"
     pagecolor="#ffffff"
     bordercolor="#000000"
     borderopacity="0.25"
     inkscape:showpageshadow="2"
     inkscape:pageopacity="0.0"
     inkscape:pagecheckerboard="0"
     inkscape:deskcolor="#d1d1d1"
     showguides="true"
     inkscape:zoom="0.34912109"
     inkscape:cx="537.06294"
     inkscape:cy="557.11329"
     inkscape:window-width="1745"
     inkscape:window-height="911"
     inkscape:window-x="0"
     inkscape:window-y="0"
     inkscape:window-maximized="1"
     inkscape:current-layer="g1">
    <sodipodi:guide
       position="614.16658,715.42868"
       orientation="0,-1"
       id="guide10"
       inkscape:locked="false" />
    <sodipodi:guide
       position="545.17972,625.5023"
       orientation="1,0"
       id="guide11"
       inkscape:locked="false" />
    <sodipodi:guide
       position="614.16658,715.42868"
       orientation="1,0"
       id="guide12"
       inkscape:locked="false" />
  </sodipodi:namedview>
  <g
     inkscape:groupmode="layer"
     inkscape:label="Image"
     id="g1">
    <g
       id="g29">
      <path
         style="fill:#f9f9f9;stroke:#600c0c;stroke-width:60;stroke-linecap:square;stroke-linejoin:round;stroke-miterlimit:2;stroke-dasharray:none;stroke-opacity:1"
         id="path17"
         sodipodi:type="arc"
         sodipodi:cx="545.17975"
         sodipodi:cy="474.70282"
         sodipodi:rx="418.96994"
         sodipodi:ry="418.96994"
         sodipodi:start="5.7613146"
         sodipodi:end="3.6686594"
         sodipodi:open="true"
         sodipodi:arc-type="arc"
         d="M 908.37982,265.84517 A 418.96994,418.96994 0 0 1 813.74696,796.27313 418.96994,418.96994 0 0 1 274.94528,794.87331 418.96994,418.96994 0 0 1 183.06981,263.9608" />
      <path
         style="fill:#000055;stroke-width:3.77953;stroke-linecap:square;stroke-linejoin:round;stroke-miterlimit:2"
         d="m 362.92172,395.4995 c 0,0 -6.72659,-84.6354 5.75572,-96.4995 16.02696,-4.96926 99.36595,-6.42146 132.62078,-3.75207 6.47726,15.72745 -0.0101,23.96144 21.12922,25.62451 20.48181,1.61135 75.16631,2.55858 75.16631,2.55858 l -0.0217,24.22772 c 0,0 -189.9585,-10.27722 -200.14485,0.46241 -10.18635,10.73963 -10.41667,61.4688 -10.41667,61.4688 z"
         id="path12"
         sodipodi:nodetypes="cccsccscc" />
      <path
         style="fill:#800000;stroke-width:4.05238;stroke-linecap:square;stroke-linejoin:round;stroke-miterlimit:2"
         d="m 604.87505,325.5 c 0,0 109.36284,-5.58389 120.96714,5.65504 11.6043,11.23893 6.16984,26.84501 6.16984,26.84501 l -17.89095,0.54896 c 0,0 -0.29572,-11.50798 -5.9152,-12.04901 -19.44267,-1.87189 -102.74502,-0.0875 -102.74502,-0.0875 z"
         id="path13"
         sodipodi:nodetypes="csccscc" />
      <path
         style="fill:#f9f9f9;stroke:#251285;stroke-width:8;stroke-linecap:square;stroke-linejoin:round;stroke-miterlimit:2;stroke-dasharray:none;stroke-opacity:1"
         d="m 536.71857,411.16835 -0.50228,-129.79151 -41.98653,-0.22587 78.75556,-86.96712 75.49203,87.26431 h -42.77192 l -0.48914,129.92868 z"
         id="path10"
         sodipodi:nodetypes="cccccccc" />
      <path
         style="fill:#800000;stroke-width:3.77953;stroke-linecap:square;stroke-linejoin:round;stroke-miterlimit:2"
         d="m 362.92172,395.4995 24.08881,14.09045"
         id="path14" />
      <rect
         style="fill:#008000;stroke-width:4.25239;stroke-linecap:square;stroke-linejoin:round;stroke-miterlimit:2"
         id="rect9"
         width="351.9361"
         height="223.97844"
         x="514.99982"
         y="383.81686"
         transform="matrix(1,0,-0.24996978,0.96825364,0,0)"
         ry="23.136583" />
      <path
         style="fill:#800000;stroke-width:3.77953;stroke-linecap:square;stroke-linejoin:round;stroke-miterlimit:2"
         d="m 387.17775,487.78407 -17.44603,93.3209"
         id="path15" />
      <path
         style="fill:#800000;stroke-width:3.77953;stroke-linecap:square;stroke-linejoin:round;stroke-miterlimit:2"
         d="m 362.92172,395.4995 24.08881,14.09045 0.16722,78.19412 -17.44603,93.3209 c 0,0 -2.53201,-8.87301 -2.53201,-8.87301 z"
         id="path16" />
      <path
         style="font-weight:bold;font-size:74.6667px;font-family:'Liberation Sans';-inkscape-font-specification:'Liberation Sans Bold';text-align:center;text-anchor:middle;white-space:pre;fill:#1c026a;stroke-width:4;stroke-linecap:square;stroke-linejoin:round;stroke-miterlimit:2;stroke:#0c1260;stroke-opacity:1;stroke-dasharray:none"
         d="m 342.23434,695.64805 q 4.19271,0 8.13021,-1.20313 3.9375,-1.23958 6.08855,-3.13542 v -7.10937 h -12.54168 v -7.94793 h 22.38543 v 18.88543 q -4.08333,4.19271 -10.64584,6.5625 -6.52604,2.3698 -13.70834,2.3698 -12.54167,0 -19.28647,-6.92709 -6.74479,-6.96355 -6.74479,-19.72397 0,-12.6875 6.78125,-19.4323 6.78126,-6.78125 19.50522,-6.78125 18.08334,0 23.00522,13.38021 l -9.91667,2.98959 q -1.60417,-3.90105 -5.03125,-5.90626 -3.42709,-2.0052 -8.0573,-2.0052 -7.58334,0 -11.52084,4.59375 -3.9375,4.59375 -3.9375,13.16146 0,8.71355 4.04688,13.48959 4.08333,4.73959 11.44792,4.73959 z m 31.28126,7.69271 v -7.10938 q 2.00521,-4.41146 5.68751,-8.60417 3.71875,-4.19271 9.33333,-8.75 5.39584,-4.37501 7.54688,-7.21876 2.1875,-2.84375 2.1875,-5.57813 0,-6.70833 -6.74479,-6.70833 -3.28125,0 -5.03125,1.78646 -1.71355,1.75 -2.22396,5.28646 l -10.31772,-0.58334 q 0.875,-7.14583 5.32292,-10.90104 4.48438,-3.75521 12.17709,-3.75521 8.31251,0 12.76042,3.79167 4.44792,3.79166 4.44792,10.64583 0,3.60938 -1.42187,6.52605 -1.42188,2.91667 -3.64584,5.39584 -2.22396,2.4427 -4.95833,4.59375 -2.69792,2.15104 -5.25001,4.19271 -2.55208,2.04167 -4.66666,4.11979 -2.07813,2.07813 -3.09896,4.44792 h 23.84376 v 8.42188 z m 67.92191,-7.72917 q 9.73438,0 13.52605,-9.77084 l 9.3698,3.53646 q -3.02604,7.4375 -8.89584,11.08334 -5.83333,3.60938 -14.00001,3.60938 -12.39583,0 -19.17709,-7.00001 -6.74479,-7.03646 -6.74479,-19.65105 0,-12.65105 6.52604,-19.4323 6.52605,-6.78125 18.92189,-6.78125 9.04167,0 14.72917,3.64583 5.6875,3.60938 7.98438,10.64584 l -9.47917,2.58854 q -1.20313,-3.86458 -4.73959,-6.125 -3.5,-2.29687 -8.27604,-2.29687 -7.29167,0 -11.08334,4.52083 -3.75521,4.52084 -3.75521,13.23438 0,8.85938 3.86458,13.52605 3.90105,4.66667 11.22917,4.66667 z m 67.63025,-12.03126 q 0,9.58855 -5.32292,15.0573 -5.32292,5.4323 -14.72917,5.4323 -9.22397,0 -14.47397,-5.46876 -5.25,-5.46875 -5.25,-15.02084 0,-9.51563 5.25,-14.94792 5.25,-5.46875 14.69272,-5.46875 9.66146,0 14.72917,5.28646 5.10417,5.25 5.10417,15.13021 z m -10.71875,0 q 0,-7.03646 -2.29688,-10.20834 -2.29688,-3.17187 -6.67188,-3.17187 -9.33334,0 -9.33334,13.38021 0,6.59896 2.26042,10.06251 2.29688,3.42708 6.59896,3.42708 9.44272,0 9.44272,-13.48959 z m 42.07293,19.76043 v -22.13022 q 0,-10.39063 -5.97917,-10.39063 -3.09896,0 -5.06771,3.17188 -1.9323,3.17187 -1.9323,8.20313 v 21.14584 h -10.24479 v -30.62502 q 0,-3.17187 -0.10938,-5.17708 -0.0729,-2.04167 -0.18229,-3.64584 h 9.77084 q 0.10937,0.69271 0.29166,3.71876 0.1823,2.98958 0.1823,4.11979 h 0.14583 q 1.89583,-4.52084 4.70313,-6.5625 2.84375,-2.04167 6.78125,-2.04167 9.04167,0 10.97396,8.60417 h 0.21875 q 2.00521,-4.59375 4.81251,-6.59896 2.80729,-2.00521 7.14583,-2.00521 5.76042,0 8.78646,3.9375 3.02605,3.90104 3.02605,11.22917 v 25.04689 h -10.17188 v -22.13022 q 0,-10.39063 -5.97917,-10.39063 -2.98959,0 -4.92188,2.91667 -1.89583,2.88021 -2.07812,7.98438 v 21.6198 z m 66.39067,0 v -22.13022 q 0,-10.39063 -5.97917,-10.39063 -3.09896,0 -5.06771,3.17188 -1.9323,3.17187 -1.9323,8.20313 v 21.14584 h -10.24479 v -30.62502 q 0,-3.17187 -0.10938,-5.17708 -0.0729,-2.04167 -0.18229,-3.64584 h 9.77084 q 0.10937,0.69271 0.29166,3.71876 0.1823,2.98958 0.1823,4.11979 h 0.14583 q 1.89583,-4.52084 4.70313,-6.5625 2.84375,-2.04167 6.78125,-2.04167 9.04167,0 10.97396,8.60417 h 0.21875 q 2.00521,-4.59375 4.81251,-6.59896 2.80729,-2.00521 7.14583,-2.00521 5.76042,0 8.78647,3.9375 3.02604,3.90104 3.02604,11.22917 v 25.04689 h -10.17188 v -22.13022 q 0,-10.39063 -5.97917,-10.39063 -2.98959,0 -4.92188,2.91667 -1.89583,2.88021 -2.07812,7.98438 v 21.6198 z m 80.64584,-19.76043 q 0,9.58855 -5.32292,15.0573 -5.32292,5.4323 -14.72918,5.4323 -9.22396,0 -14.47396,-5.46876 -5.25,-5.46875 -5.25,-15.02084 0,-9.51563 5.25,-14.94792 5.25,-5.46875 14.69271,-5.46875 9.66147,0 14.72918,5.28646 5.10417,5.25 5.10417,15.13021 z m -10.71876,0 q 0,-7.03646 -2.29687,-10.20834 -2.29688,-3.17187 -6.67188,-3.17187 -9.33334,0 -9.33334,13.38021 0,6.59896 2.26042,10.06251 2.29687,3.42708 6.59896,3.42708 9.44271,0 9.44271,-13.48959 z m 44.40628,19.76043 v -22.13022 q 0,-10.39063 -7.03646,-10.39063 -3.71875,0 -6.01563,3.20834 -2.26042,3.17187 -2.26042,8.16667 v 21.14584 h -10.24479 v -30.62502 q 0,-3.17187 -0.10938,-5.17708 -0.0729,-2.04167 -0.18229,-3.64584 h 9.77084 q 0.10937,0.69271 0.29167,3.71876 0.18229,2.98958 0.18229,4.11979 h 0.14583 q 2.07813,-4.52084 5.21354,-6.5625 3.13542,-2.04167 7.47397,-2.04167 6.27083,0 9.625,3.86458 3.35417,3.86459 3.35417,11.30209 v 25.04689 z m 53.30212,-11.52084 q 0,5.72396 -4.70313,9.00521 -4.66667,3.2448 -12.94271,3.2448 -8.13022,0 -12.46876,-2.55209 -4.30208,-2.58854 -5.72396,-8.02084 l 9.00521,-1.34895 q 0.76563,2.80729 2.625,3.97396 1.89584,1.16666 6.56251,1.16666 4.30208,0 6.27083,-1.09375 1.96875,-1.09375 1.96875,-3.42708 0,-1.89584 -1.60416,-2.98959 -1.56771,-1.13021 -5.35938,-1.89583 -8.67709,-1.71354 -11.70313,-3.17188 -3.02604,-1.49479 -4.63021,-3.82812 -1.56771,-2.3698 -1.56771,-5.79688 0,-5.65105 4.33854,-8.78647 4.375,-3.17187 12.35938,-3.17187 7.03647,0 11.30209,2.73437 4.30209,2.73438 5.35938,7.91147 l -9.07813,0.94791 q -0.4375,-2.40625 -2.15104,-3.57291 -1.71354,-1.20313 -5.4323,-1.20313 -3.64583,0 -5.46875,0.94792 -1.82292,0.91146 -1.82292,3.09896 0,1.71354 1.38542,2.73437 1.42188,0.98438 4.73959,1.64063 4.63021,0.94792 8.20313,1.96875 3.60937,0.98438 5.76041,2.36979 2.18751,1.38542 3.46355,3.57292 1.3125,2.15104 1.3125,5.54167 z"
         id="text17"
         aria-label="G2Commons" />
    </g>
  </g>
</svg>
